subject01_walk1_RRA_states
nRows=5
nColumns=47

# SIMM Motion File Header:
name subject01_walk1_RRA_states
datacolumns 47
datarows 5
otherdata 1
range 1.12299999999998670000 1.12499999999998650000
endheader
time	pelvis_tx	pelvis_ty	pelvis_tz	pelvis_tilt	pelvis_list	pelvis_rotation	hip_flexion_r	hip_adduction_r	hip_rotation_r	knee_angle_r	ankle_angle_r	subtalar_angle_r	mtp_angle_r	hip_flexion_l	hip_adduction_l	hip_rotation_l	knee_angle_l	ankle_angle_l	subtalar_angle_l	mtp_angle_l	lumbar_extension	lumbar_bending	lumbar_rotation	pelvis_tx_u	pelvis_ty_u	pelvis_tz_u	pelvis_tilt_u	pelvis_list_u	pelvis_rotation_u	hip_flexion_r_u	hip_adduction_r_u	hip_rotation_r_u	knee_angle_r_u	ankle_angle_r_u	subtalar_angle_r_u	mtp_angle_r_u	hip_flexion_l_u	hip_adduction_l_u	hip_rotation_l_u	knee_angle_l_u	ankle_angle_l_u	subtalar_angle_l_u	mtp_angle_l_u	lumbar_extension_u	lumbar_bending_u	lumbar_rotation_u
      1.12299999999998670000	      0.57864585261557011000	      1.03579929746656730000	      0.05382781746746247200	      4.91032076683241310000	     -2.78747330573412370000	     -1.34706467835640040000	    -13.65681423041440300000	      4.90293510801804540000	     -1.16291707065850010000	     -5.82252595891404920000	     10.75801685019595100000	     -0.07014557276914509800	      0.01681875862410869800	     19.61176246901439100000	     -5.67699504986917350000	     -9.69992828679867890000	    -18.09833067966555800000	     -1.15084586503882510000	      0.00508124445048399680	     -0.02110981062724065100	    -16.71670702685214800000	      3.63866795142561190000	      2.86078517767701520000	     -0.07467295355864223000	     -0.16825656909790268000	      0.00305440259217890090	     -5.42685638812000450000	    -32.13436294288714400000	    -18.82386947495492500000	    -80.68642175829036500000	     27.75938210618492600000	     39.05379561391793400000	     29.45018094690322400000	     29.96638737093097400000	     -1.94215347775678420000	      0.78497218982590233000	    -17.99723859685884600000	    -11.95250501873623600000	      6.99104266572807640000	    337.20295849719361000000	    -20.83370421872575300000	     -0.01639586256286413400	      0.15753039914221154000	      0.31353065197116159000	     22.29086999000518100000	     16.42466628954603900000
      1.12349999999998660000	      0.57860862269359425000	      1.03571505771878300000	      0.05382924841649253800	      4.90762031559729460000	     -2.80351946158255320000	     -1.35648915107300110000	    -13.69714343509426700000	      4.91677308762734990000	     -1.14339410848708020000	     -5.80787409508594800000	     10.77297685512348800000	     -0.07111588548860114900	      0.01721095975693139000	     19.60273732184174700000	     -5.68292346333516200000	     -9.69622966945828320000	    -17.92993743104552700000	     -1.16117441021145160000	      0.00507301339044783330	     -0.02103114364689635500	    -16.71656342711760200000	      3.64978114019433250000	      2.86898674129062710000	     -0.07424657719619169600	     -0.16870139621763219000	      0.00266930493566996810	     -5.37481138759226250000	    -32.04992420098292200000	    -18.87397508134056800000	    -80.63029376610339200000	     27.59207265529048000000	     39.03762048462856200000	     29.15699948015311400000	     29.87354075841779600000	     -1.93888339017893240000	      0.78329863447338866000	    -18.10305622782828600000	    -11.76125450806085700000	      7.80317172532780480000	    336.36754837779574000000	    -20.47992251170218800000	     -0.01653982899240286400	      0.15715697403049006000	      0.26072485269395385000	     22.16150837794964800000	     16.38149603858584100000
      1.12399999999998660000	      0.57857160619141568000	      1.03563059709343120000	      0.05383048668444509500	      4.90494609106738990000	     -2.81952288855300410000	     -1.36593860880720500000	    -13.73744441587408900000	      4.93052671063860700000	     -1.12387989181738020000	     -5.79336924516362380000	     10.78788996194244200000	     -0.07208444049737773600	      0.01760209978617577300	     19.59365970987376200000	     -5.68875640426745480000	     -9.69212537942458670000	    -17.76196562202219600000	     -1.17132521084023170000	      0.00506470461851629090	     -0.02095265401247812000	    -16.71644644386313400000	      3.66082907703215410000	      2.87716658181366690000	     -0.07381928314874455800	     -0.16914008498654262000	      0.00228368026373446850	     -5.32195291522286950000	    -31.96343695649284900000	    -18.92381302037005500000	    -80.57351582004112300000	     27.42194294988837600000	     39.01879790480093400000	     28.86210421054991200000	     29.77817970138849200000	     -1.93550157776505220000	      0.78177861581473684000	    -18.20709102877390300000	    -11.57060327620602900000	      8.61371344615598390000	    335.51719498004235000000	    -20.12268111075892600000	     -0.01668390550868623800	      0.15678143904951308000	      0.20706817665045704000	     22.02984991079113200000	     16.33777450323091100000
      1.12449999999998650000	      0.57853480356207798000	      1.03554591865189630000	      0.05383153201199444200	      4.90229849617844680000	     -2.83548255949460290000	     -1.37541291867385770000	    -13.77771684145589900000	      4.94419456286293270000	     -1.10437575807421910000	     -5.77901227390886700000	     10.80275435692826000000	     -0.07305145783251262800	      0.01799321603513535900	     19.58453053095042800000	     -5.69449416998087350000	     -9.68761624134450020000	    -17.59442272980538000000	     -1.18129652730421200000	      0.00505633010895795070	     -0.02087436278938628300	    -16.71635649775603800000	      3.67181061022710330000	      2.88532442422867950000	     -0.07339107988810188200	     -0.16957266564384710000	      0.00189754765584690460	     -5.26829383521398050000	    -31.87491506249574500000	    -18.97337858136742700000	    -80.51608093199513400000	     27.24900670681676100000	     38.99729427805739600000	     28.56551154079201300000	     29.67884667974408000000	     -1.93251243682878470000	      0.78296223565060219000	    -18.30932459480844100000	    -11.38057198034552700000	      9.42254200225599630000	    334.65188031592265000000	    -19.76205624124257600000	     -0.01682446685233612500	      0.15640251778220901000	      0.15257904268814668000	     21.89591176403216000000	     16.29350367258074800000
      1.12499999999998650000	      0.57849821526147371000	      1.03546102543579210000	      0.05383238415153321400	      4.89967792709540180000	     -2.85139746445997670000	     -1.38491194230079430000	    -13.81796038489785500000	      4.95777524963743140000	     -1.08488303116625610000	     -5.76480401173564160000	     10.81756836360512600000	     -0.07401694867695880800	      0.01838515406074727300	     19.57535068982880900000	     -5.70013708060307600000	     -9.68270314491931930000	    -17.42731623779852500000	     -1.19108671676647870000	      0.00504788029138364920	     -0.02079625184534609300	    -16.71629399877364400000	      3.68272460890939080000	      2.89345999458079990000	     -0.07296197752461267000	     -0.16999919873391880000	      0.00151093236950975680	     -5.21385592693474550000	    -31.78435786856332300000	    -19.02267380276497700000	    -80.45797442420598600000	     27.07326397744122900000	     38.97319284440563800000	     28.26725099890315100000	     29.57693912284056700000	     -1.92946580888861670000	      0.78453548408822549000	    -18.40973048131749600000	    -11.19116659372710700000	     10.22952426268908300000	    333.77159027398153000000	    -19.39813009626990900000	     -0.01696441393492830300	      0.15602155432067635000	      0.09728660302604333300	     21.75969388905729600000	     16.24868755526712100000
